<svg id="svg" version="1.1" xmlns="http://www.w3.org/2000/svg" xmlns:xlink="http://www.w3.org/1999/xlink" width="400" height="64.09774436090225" viewBox="0, 0, 400,64.09774436090225"><g id="svgg"><path id="path0" d="M88.333 36.500 L 88.333 57.500 92.333 57.500 L 96.333 57.500 96.334 52.125 L 96.334 46.750 99.497 43.542 C 101.236 41.777,102.720 40.333,102.794 40.333 C 102.867 40.333,103.474 40.990,104.142 41.792 C 104.809 42.594,105.613 43.550,105.926 43.917 C 106.240 44.283,106.844 44.996,107.268 45.500 C 107.692 46.004,108.325 46.754,108.675 47.167 C 109.024 47.579,110.295 49.079,111.499 50.500 C 112.703 51.921,114.039 53.488,114.469 53.983 C 114.899 54.478,115.325 55.008,115.417 55.161 C 115.566 55.410,115.893 55.784,117.117 57.104 L 117.485 57.500 122.076 57.500 C 125.052 57.500,126.667 57.441,126.667 57.332 C 126.667 57.061,125.641 55.704,123.906 53.680 C 123.625 53.352,123.214 52.821,122.994 52.500 C 122.773 52.179,122.353 51.654,122.060 51.333 C 121.767 51.012,121.355 50.525,121.144 50.250 C 120.934 49.975,120.715 49.712,120.658 49.667 C 120.601 49.621,120.486 49.458,120.402 49.305 C 120.319 49.151,119.974 48.701,119.637 48.305 C 118.709 47.212,116.405 44.360,115.662 43.384 C 115.299 42.908,114.833 42.338,114.626 42.118 C 114.419 41.898,113.933 41.312,113.545 40.817 C 112.460 39.431,111.007 37.629,110.603 37.167 C 110.402 36.938,109.934 36.337,109.561 35.833 C 109.189 35.329,108.760 34.813,108.609 34.688 C 108.210 34.357,108.260 34.187,108.958 33.500 C 109.302 33.162,110.521 31.887,111.667 30.668 C 112.813 29.448,114.388 27.772,115.167 26.943 C 115.946 26.114,117.137 24.857,117.814 24.150 C 118.491 23.443,119.091 22.790,119.147 22.699 C 119.204 22.608,120.188 21.539,121.333 20.323 C 125.616 15.778,125.667 15.723,125.667 15.606 C 125.667 15.548,123.607 15.500,121.090 15.500 L 116.514 15.500 115.715 16.355 C 114.881 17.249,111.542 20.719,108.833 23.506 C 107.962 24.402,106.615 25.799,105.838 26.609 C 103.515 29.034,98.887 33.831,97.610 35.137 L 96.417 36.357 96.374 25.929 L 96.331 15.500 92.332 15.500 L 88.333 15.500 88.333 36.500 M60.083 19.773 C 57.890 20.021,55.538 20.726,55.361 21.189 C 55.330 21.270,55.250 21.301,55.182 21.259 C 55.114 21.218,54.921 21.798,54.752 22.550 C 54.583 23.302,54.396 23.954,54.335 24.000 C 54.275 24.046,53.972 25.133,53.662 26.417 C 53.352 27.700,53.049 28.787,52.988 28.833 C 52.928 28.879,52.590 30.154,52.238 31.667 C 51.886 33.179,51.546 34.454,51.483 34.500 C 51.384 34.572,50.586 37.679,50.252 39.292 C 50.191 39.590,50.071 39.833,49.987 39.833 C 49.902 39.833,49.834 39.927,49.836 40.042 C 49.840 40.404,48.614 45.413,48.500 45.500 C 48.440 45.546,48.247 46.203,48.070 46.960 C 47.822 48.028,47.694 48.317,47.500 48.251 C 47.362 48.204,47.457 48.323,47.709 48.514 C 47.962 48.706,48.128 48.928,48.079 49.007 C 47.992 49.148,48.255 49.504,49.208 50.538 C 49.460 50.812,49.667 51.115,49.667 51.212 C 49.667 51.309,49.715 51.341,49.774 51.282 C 49.832 51.223,50.226 51.462,50.649 51.812 C 51.071 52.163,51.754 52.667,52.167 52.932 C 52.579 53.197,52.956 53.467,53.005 53.532 C 53.054 53.598,53.804 53.919,54.672 54.246 C 55.540 54.573,56.372 54.909,56.522 54.993 C 57.749 55.679,63.103 55.955,65.417 55.452 C 67.082 55.090,67.075 55.092,67.167 55.000 C 67.212 54.954,67.809 54.729,68.491 54.500 C 69.174 54.271,69.983 53.915,70.290 53.708 C 70.597 53.502,70.881 53.333,70.921 53.333 C 71.097 53.333,72.780 52.173,73.067 51.853 C 73.242 51.659,73.453 51.500,73.535 51.500 C 73.715 51.500,75.160 50.016,75.888 49.083 C 76.174 48.717,76.453 48.379,76.507 48.333 C 76.676 48.191,77.833 46.251,77.833 46.110 C 77.833 46.036,77.935 45.874,78.060 45.750 C 78.185 45.625,78.497 44.862,78.755 44.053 C 79.013 43.245,79.277 42.508,79.343 42.417 C 80.035 41.446,80.036 33.565,79.343 33.000 C 79.287 32.954,79.108 32.467,78.946 31.917 C 78.623 30.825,78.152 29.632,77.991 29.500 C 77.935 29.454,77.637 28.940,77.328 28.357 C 77.020 27.775,76.670 27.260,76.551 27.214 C 76.431 27.169,76.333 27.017,76.333 26.877 C 76.333 26.511,73.152 23.435,72.211 22.892 C 71.774 22.639,71.377 22.377,71.330 22.309 C 71.282 22.242,70.644 21.913,69.913 21.578 C 69.182 21.244,68.396 20.874,68.167 20.756 C 66.748 20.024,62.470 19.504,60.083 19.773 M129.711 35.941 C 129.784 47.065,129.918 49.015,130.670 49.921 C 130.776 50.048,130.806 50.242,130.739 50.352 C 130.665 50.471,130.686 50.508,130.790 50.444 C 130.886 50.384,131.008 50.510,131.062 50.723 C 131.287 51.621,132.851 53.872,133.086 53.637 C 133.134 53.588,133.260 51.082,133.366 48.066 C 133.472 45.051,133.607 42.546,133.666 42.500 C 133.778 42.414,134.414 25.687,134.309 25.593 C 134.277 25.563,133.213 25.485,131.945 25.418 L 129.641 25.298 129.711 35.941 M65.060 28.644 C 70.895 30.884,73.214 37.326,70.093 42.631 C 69.755 43.207,69.333 43.768,69.155 43.879 C 68.978 43.990,68.833 44.147,68.833 44.229 C 68.833 44.426,68.080 45.088,67.250 45.621 C 66.883 45.857,66.544 46.109,66.497 46.181 C 65.636 47.484,58.195 47.482,57.167 46.178 C 57.121 46.120,56.671 45.775,56.167 45.412 C 54.956 44.539,54.667 44.288,54.667 44.113 C 54.667 44.033,54.460 43.760,54.208 43.508 C 52.116 41.411,51.508 36.946,52.901 33.903 C 53.131 33.403,53.335 32.938,53.356 32.872 C 53.377 32.805,53.606 32.525,53.864 32.250 C 54.123 31.975,54.375 31.637,54.424 31.500 C 54.474 31.363,54.925 30.912,55.426 30.500 C 58.354 28.090,61.858 27.415,65.060 28.644 M60.500 37.569 L 60.500 42.000 61.208 41.994 C 61.703 41.989,62.193 41.822,62.833 41.441 C 66.575 39.212,65.531 33.951,61.208 33.252 L 60.500 33.137 60.500 37.569 " stroke="none" fill="#a857a2" fill-rule="evenodd"></path><path id="path1" d="M33.430 16.208 C 33.398 16.323,33.289 16.809,33.189 17.290 C 32.854 18.893,31.515 20.347,30.133 20.609 C 29.831 20.667,29.490 20.787,29.377 20.876 C 29.253 20.973,28.852 20.986,28.377 20.907 C 27.940 20.834,27.533 20.769,27.472 20.762 C 27.411 20.756,27.305 20.694,27.236 20.625 C 27.167 20.556,26.894 20.500,26.629 20.500 C 26.364 20.500,26.183 20.441,26.228 20.369 C 26.272 20.297,26.163 20.238,25.985 20.238 C 25.658 20.238,25.499 20.610,25.226 22.009 C 25.165 22.325,25.055 22.623,24.982 22.671 C 24.910 22.719,24.698 23.432,24.511 24.254 C 24.324 25.077,24.127 25.908,24.072 26.101 C 23.987 26.403,24.062 26.467,24.612 26.558 C 25.516 26.707,36.458 26.688,36.221 26.537 C 36.020 26.409,36.598 23.522,36.865 23.328 C 36.932 23.279,37.133 22.604,37.312 21.828 C 37.490 21.052,37.653 20.492,37.673 20.583 C 37.692 20.675,37.761 21.837,37.825 23.167 C 37.932 25.376,37.944 25.194,37.971 21.055 C 37.987 18.565,37.954 16.409,37.899 16.264 C 37.766 15.917,33.528 15.864,33.430 16.208 M170.740 30.500 C 170.785 33.479,170.835 38.842,170.850 42.417 L 170.878 48.917 171.254 39.250 C 171.461 33.933,171.665 28.702,171.708 27.625 C 171.782 25.753,171.771 25.667,171.453 25.667 C 171.270 25.667,171.016 25.535,170.889 25.375 C 170.691 25.125,170.670 25.862,170.740 30.500 M172.792 25.291 C 173.731 25.321,175.269 25.321,176.208 25.291 C 177.148 25.261,176.379 25.237,174.500 25.237 C 172.621 25.237,171.852 25.261,172.792 25.291 M155.461 25.496 C 156.035 25.562,156.528 25.646,156.557 25.683 C 156.657 25.813,155.938 44.085,155.830 44.167 C 155.583 44.354,155.276 57.028,155.515 57.176 C 155.655 57.263,155.332 57.339,154.662 57.377 C 154.069 57.411,155.271 57.434,157.333 57.428 L 161.083 57.417 161.083 41.417 L 161.083 25.417 157.750 25.396 C 155.632 25.383,154.797 25.419,155.461 25.496 M344.080 41.417 C 344.080 50.125,344.100 53.712,344.125 49.388 C 344.150 45.063,344.150 37.938,344.125 33.554 C 344.100 29.170,344.080 32.708,344.080 41.417 M22.333 33.500 L 22.750 33.633 22.333 33.651 C 21.937 33.667,21.888 33.786,21.348 36.042 C 21.035 37.348,20.726 38.454,20.662 38.500 C 20.494 38.620,19.809 41.698,19.925 41.813 C 20.231 42.119,33.605 42.304,33.417 42.000 C 33.360 41.908,32.972 41.833,32.554 41.833 C 31.846 41.833,31.802 41.808,31.901 41.458 C 31.960 41.252,32.056 40.858,32.114 40.583 C 32.172 40.308,32.273 40.046,32.338 40.000 C 32.453 39.920,33.352 36.413,33.589 35.125 C 33.652 34.781,33.770 34.500,33.852 34.500 C 33.933 34.500,34.000 34.375,34.000 34.221 C 34.000 34.068,34.124 33.806,34.276 33.638 C 34.543 33.343,34.344 33.334,28.234 33.350 C 24.760 33.359,22.104 33.427,22.333 33.500 " stroke="none" fill="#613e98" fill-rule="evenodd"></path><path id="path2" d="M37.287 21.848 C 37.127 22.610,36.939 23.274,36.869 23.325 C 36.799 23.375,36.581 24.091,36.384 24.915 C 35.976 26.619,35.995 26.660,37.189 26.664 L 37.962 26.667 37.879 24.125 C 37.760 20.489,37.657 20.091,37.287 21.848 M55.406 20.810 C 55.320 20.886,54.817 21.119,54.287 21.328 C 53.758 21.538,53.139 21.855,52.912 22.033 C 52.686 22.212,52.499 22.296,52.497 22.220 C 52.496 22.145,52.440 22.163,52.372 22.261 C 52.305 22.359,51.875 22.691,51.417 23.000 C 48.423 25.016,45.737 28.638,44.741 32.000 L 44.371 33.250 39.487 33.294 C 34.273 33.341,34.000 33.386,34.000 34.192 C 34.000 34.362,33.933 34.500,33.852 34.500 C 33.770 34.500,33.652 34.781,33.589 35.125 C 33.352 36.413,32.453 39.920,32.338 40.000 C 32.273 40.046,32.172 40.308,32.114 40.583 C 32.056 40.858,31.960 41.252,31.901 41.458 C 31.802 41.807,31.847 41.833,32.531 41.833 C 32.935 41.833,33.341 41.907,33.431 41.998 C 33.530 42.097,35.729 42.179,38.989 42.206 L 44.382 42.250 44.614 43.083 C 44.852 43.941,45.340 45.186,45.495 45.333 C 45.544 45.379,45.798 45.866,46.060 46.415 C 46.712 47.784,47.893 49.308,48.074 49.016 C 48.126 48.931,47.962 48.706,47.709 48.514 C 47.457 48.323,47.362 48.204,47.500 48.251 C 47.694 48.317,47.822 48.028,48.070 46.960 C 48.247 46.203,48.440 45.546,48.500 45.500 C 48.614 45.413,49.840 40.404,49.836 40.042 C 49.834 39.927,49.902 39.833,49.987 39.833 C 50.071 39.833,50.191 39.590,50.252 39.292 C 50.586 37.679,51.384 34.572,51.483 34.500 C 51.546 34.454,51.886 33.179,52.238 31.667 C 52.590 30.154,52.928 28.879,52.988 28.833 C 53.049 28.787,53.352 27.700,53.662 26.417 C 53.972 25.133,54.275 24.046,54.335 24.000 C 54.396 23.954,54.584 23.299,54.753 22.545 C 54.923 21.790,55.094 21.205,55.134 21.245 C 55.174 21.285,55.319 21.205,55.456 21.067 C 55.719 20.804,55.674 20.573,55.406 20.810 M130.917 25.339 C 131.558 25.405,132.590 25.468,133.208 25.479 C 134.256 25.499,134.334 25.526,134.338 25.875 C 134.355 27.446,133.749 42.435,133.665 42.500 C 133.607 42.546,133.472 45.051,133.366 48.066 C 133.175 53.496,133.128 53.971,132.827 53.495 C 132.742 53.360,132.671 53.333,132.669 53.434 C 132.664 53.839,134.852 55.610,136.191 56.284 C 139.168 57.782,143.613 58.238,147.333 57.427 C 148.427 57.189,151.833 55.590,151.833 55.315 C 151.833 55.234,151.903 55.167,151.987 55.167 C 152.072 55.167,152.435 54.867,152.795 54.500 C 153.675 53.602,153.667 53.592,153.667 55.583 L 153.667 57.333 154.708 57.331 C 155.369 57.329,155.666 57.275,155.520 57.182 C 155.277 57.029,155.579 44.357,155.830 44.167 C 155.942 44.081,156.655 25.809,156.550 25.677 C 156.519 25.637,156.026 25.562,155.455 25.510 C 154.764 25.448,155.505 25.386,157.667 25.326 L 160.917 25.236 157.167 25.243 L 153.417 25.250 153.333 34.667 C 153.276 41.174,153.192 44.181,153.063 44.399 C 152.961 44.572,152.913 44.853,152.958 45.024 C 153.002 45.194,152.955 45.333,152.853 45.333 C 152.750 45.333,152.667 45.427,152.667 45.542 C 152.666 46.385,150.953 48.859,149.972 49.433 C 144.787 52.466,139.333 50.941,137.879 46.050 C 137.625 45.193,137.586 43.971,137.540 35.256 C 137.500 27.789,137.439 25.398,137.285 25.300 C 137.174 25.230,135.433 25.182,133.417 25.195 C 130.836 25.212,130.095 25.255,130.917 25.339 M52.045 37.667 C 52.045 38.079,52.078 38.248,52.118 38.042 C 52.157 37.835,52.157 37.498,52.118 37.292 C 52.078 37.085,52.045 37.254,52.045 37.667 M48.333 49.750 C 48.549 49.979,48.753 50.167,48.787 50.167 C 48.925 50.167,48.238 49.343,48.096 49.339 C 48.011 49.336,48.118 49.521,48.333 49.750 " stroke="none" fill="#7a469c" fill-rule="evenodd"></path><path id="path3" d="M248.314 11.387 C 247.982 11.511,247.607 11.697,247.480 11.800 C 246.349 12.724,246.000 13.064,246.000 13.245 C 246.000 13.360,245.835 13.665,245.632 13.922 C 245.106 14.592,245.096 16.592,245.614 17.682 C 247.405 21.454,253.394 21.308,254.864 17.457 C 256.347 13.571,252.362 9.878,248.314 11.387 M346.032 11.434 C 345.637 11.572,345.187 11.813,345.030 11.968 C 344.874 12.123,344.542 12.410,344.292 12.605 C 343.301 13.381,342.843 15.799,343.360 17.524 C 344.265 20.545,349.405 21.399,351.759 18.920 C 353.350 17.245,353.227 13.642,351.536 12.379 C 351.195 12.125,350.820 11.826,350.703 11.715 C 350.103 11.148,347.325 10.981,346.032 11.434 M283.000 14.808 C 283.000 14.885,282.156 14.997,281.125 15.055 C 279.187 15.165,276.036 15.791,275.117 16.250 C 274.828 16.394,273.953 16.786,273.171 17.121 C 272.389 17.456,271.641 17.838,271.507 17.971 C 271.374 18.103,271.058 18.299,270.806 18.405 C 270.553 18.511,270.072 18.819,269.736 19.090 C 267.902 20.571,266.985 21.386,266.694 21.794 C 266.515 22.045,266.099 22.537,265.768 22.887 C 265.437 23.237,265.167 23.627,265.167 23.752 C 265.167 23.878,265.025 24.081,264.851 24.202 C 264.677 24.324,264.246 25.022,263.893 25.753 C 263.539 26.484,263.173 27.165,263.079 27.266 C 262.985 27.367,262.731 28.042,262.515 28.766 C 262.299 29.491,261.985 30.508,261.817 31.026 C 261.030 33.454,261.037 39.255,261.830 41.860 C 262.007 42.441,262.313 43.463,262.511 44.131 C 262.708 44.799,262.964 45.441,263.080 45.556 C 263.196 45.672,263.520 46.287,263.800 46.923 C 264.081 47.559,264.454 48.231,264.630 48.415 C 264.807 48.599,265.071 48.984,265.219 49.270 C 265.534 49.882,268.060 52.497,269.239 53.432 C 270.485 54.419,271.602 55.042,274.781 56.521 C 275.743 56.969,278.800 57.644,280.458 57.774 C 281.215 57.834,281.833 57.946,281.833 58.025 C 281.833 58.103,282.696 58.167,283.750 58.167 C 284.804 58.167,285.667 58.103,285.667 58.025 C 285.667 57.946,286.285 57.834,287.042 57.776 C 289.162 57.611,291.481 57.076,292.917 56.420 C 296.481 54.791,297.405 54.181,299.589 52.012 C 300.669 50.939,300.684 50.838,299.884 50.129 C 299.545 49.829,298.414 48.758,297.371 47.750 C 295.068 45.525,295.434 45.629,294.175 46.839 C 292.353 48.589,289.169 50.333,287.798 50.333 C 287.634 50.333,287.500 50.390,287.500 50.458 C 287.500 50.527,287.331 50.599,287.125 50.618 C 286.919 50.638,286.225 50.729,285.583 50.821 C 284.301 51.005,281.703 50.885,281.377 50.626 C 281.264 50.536,281.045 50.511,280.890 50.570 C 280.736 50.630,280.566 50.618,280.513 50.544 C 280.460 50.471,279.817 50.240,279.083 50.030 C 276.019 49.156,272.749 46.491,271.326 43.710 C 271.056 43.182,270.747 42.646,270.639 42.518 C 269.263 40.891,269.273 31.348,270.652 30.333 C 270.715 30.287,270.981 29.800,271.244 29.250 C 271.508 28.700,271.973 27.990,272.278 27.672 C 272.584 27.353,272.833 27.006,272.833 26.900 C 272.833 26.794,273.190 26.419,273.625 26.066 C 274.060 25.714,274.515 25.292,274.634 25.129 C 274.754 24.967,274.920 24.833,275.002 24.833 C 275.151 24.833,276.112 24.235,276.748 23.745 C 277.087 23.485,279.979 22.500,280.405 22.500 C 280.534 22.500,280.670 22.406,280.708 22.292 C 280.802 22.010,287.119 21.990,287.298 22.271 C 287.363 22.374,287.679 22.512,288.000 22.578 C 289.116 22.806,291.111 23.572,291.333 23.857 C 291.379 23.915,291.739 24.131,292.133 24.336 C 292.528 24.541,293.053 24.908,293.300 25.152 C 293.548 25.396,294.107 25.921,294.542 26.320 L 295.335 27.044 296.792 25.630 C 297.594 24.853,298.712 23.812,299.277 23.317 C 300.726 22.047,300.727 22.023,299.387 20.726 C 297.546 18.943,297.240 18.667,297.105 18.667 C 297.034 18.667,296.642 18.436,296.232 18.154 C 295.404 17.584,293.115 16.500,292.741 16.500 C 292.608 16.500,292.500 16.435,292.500 16.356 C 292.500 16.207,290.591 15.647,289.000 15.329 C 288.496 15.228,287.277 15.102,286.292 15.048 C 285.306 14.994,284.500 14.886,284.500 14.808 C 284.500 14.730,284.162 14.667,283.750 14.667 C 283.337 14.667,283.000 14.730,283.000 14.808 M5.443 17.875 C 5.383 18.906,5.335 21.306,5.334 23.208 L 5.333 26.667 8.343 26.667 C 10.049 26.667,11.313 26.603,11.262 26.519 C 11.158 26.352,11.667 24.128,11.838 24.000 C 11.899 23.954,12.129 23.167,12.349 22.250 C 12.674 20.901,12.806 20.588,13.042 20.606 C 13.478 20.641,13.394 20.434,12.875 20.197 C 11.823 19.715,11.622 19.543,11.144 18.709 C 10.828 18.158,10.608 17.495,10.548 16.917 L 10.453 16.000 8.002 16.000 L 5.551 16.000 5.443 17.875 M187.500 25.000 C 187.296 25.132,187.316 25.162,187.609 25.164 C 187.942 25.166,187.964 25.236,187.905 26.125 C 187.870 26.652,187.807 28.021,187.766 29.167 C 187.724 30.313,187.645 31.366,187.590 31.507 C 187.510 31.714,187.725 31.804,188.691 31.970 C 190.942 32.356,193.667 34.553,193.667 35.983 C 193.667 36.072,193.754 36.356,193.860 36.614 C 193.967 36.872,194.039 37.147,194.021 37.226 C 194.003 37.304,194.085 37.484,194.202 37.626 C 194.370 37.828,194.428 40.010,194.469 47.692 L 194.522 57.500 198.351 57.500 L 202.180 57.500 202.125 46.458 C 202.072 35.559,201.969 33.500,201.479 33.500 C 201.413 33.500,201.309 33.270,201.247 32.988 C 201.106 32.345,200.241 30.423,199.919 30.039 C 198.937 28.864,197.528 27.478,197.061 27.226 C 196.752 27.060,196.500 26.862,196.500 26.786 C 196.500 26.709,196.425 26.693,196.333 26.750 C 196.242 26.807,196.167 26.787,196.167 26.707 C 196.167 26.552,194.861 25.991,193.750 25.668 C 193.383 25.562,192.971 25.429,192.833 25.374 C 191.838 24.974,187.962 24.702,187.500 25.000 M224.083 25.024 C 223.350 25.101,222.637 25.176,222.500 25.190 C 222.362 25.205,222.213 25.262,222.167 25.317 C 222.121 25.372,221.371 25.594,220.500 25.812 C 219.057 26.172,218.050 26.551,217.833 26.815 C 217.787 26.871,217.307 27.128,216.766 27.386 C 215.320 28.075,212.786 30.297,212.239 31.355 C 212.107 31.609,211.901 31.877,211.779 31.950 C 210.833 32.521,209.442 36.595,209.153 39.642 C 208.902 42.295,209.556 47.456,210.195 47.851 C 210.287 47.907,210.355 48.002,210.348 48.060 C 210.310 48.342,211.417 50.395,212.004 51.133 C 212.369 51.590,212.669 52.029,212.672 52.107 C 212.687 52.501,216.751 55.682,217.562 55.934 C 217.757 55.995,218.367 56.255,218.917 56.512 C 223.725 58.757,233.592 57.863,236.321 54.934 C 236.543 54.695,236.814 54.500,236.924 54.500 C 237.165 54.500,239.167 52.349,239.167 52.090 C 239.167 51.990,239.392 51.661,239.667 51.360 C 240.384 50.574,240.328 50.118,239.458 49.665 C 239.069 49.463,238.713 49.239,238.667 49.168 C 238.621 49.097,238.041 48.764,237.379 48.427 C 236.717 48.090,236.133 47.747,236.081 47.663 C 236.029 47.579,235.602 47.318,235.132 47.081 L 234.276 46.652 233.846 47.183 C 232.966 48.272,231.479 49.638,230.875 49.913 C 230.531 50.070,229.950 50.343,229.583 50.520 C 227.923 51.323,224.567 51.303,222.835 50.480 C 222.422 50.283,221.896 50.033,221.667 49.924 C 220.138 49.197,218.933 47.967,218.147 46.333 C 217.948 45.921,217.724 45.543,217.649 45.494 C 217.358 45.304,216.961 43.013,216.956 41.500 C 216.948 38.987,217.186 38.089,218.465 35.813 C 218.877 35.078,220.270 33.650,220.872 33.345 C 221.123 33.217,221.471 32.980,221.646 32.817 C 223.979 30.643,230.807 31.771,233.095 34.708 C 233.434 35.144,233.776 35.500,233.856 35.500 C 233.935 35.500,234.000 35.612,234.000 35.750 C 234.000 36.059,234.760 36.090,234.950 35.788 C 235.023 35.672,235.601 35.317,236.235 35.000 C 236.868 34.683,237.472 34.338,237.576 34.234 C 237.680 34.129,238.306 33.764,238.966 33.423 C 240.285 32.740,240.491 32.324,239.833 31.667 C 239.650 31.483,239.500 31.289,239.500 31.236 C 239.500 30.825,237.101 28.156,236.868 28.307 C 236.819 28.338,236.714 28.245,236.634 28.101 C 236.553 27.958,236.134 27.635,235.702 27.384 C 235.270 27.133,234.819 26.833,234.700 26.717 C 234.468 26.492,231.446 25.500,230.993 25.500 C 230.844 25.500,230.670 25.448,230.606 25.384 C 230.186 24.963,226.562 24.763,224.083 25.024 M317.917 25.014 C 317.183 25.096,316.471 25.175,316.333 25.188 C 316.196 25.201,316.008 25.268,315.917 25.337 C 315.825 25.405,315.487 25.513,315.167 25.576 C 314.055 25.793,312.000 26.528,312.000 26.708 C 312.000 26.808,311.958 26.847,311.906 26.795 C 311.487 26.376,306.915 30.048,306.247 31.340 C 306.106 31.611,305.932 31.833,305.859 31.833 C 305.683 31.833,304.500 34.069,304.500 34.403 C 304.500 34.548,304.428 34.667,304.340 34.667 C 304.115 34.667,303.557 36.661,303.322 38.308 C 302.900 41.264,303.524 47.631,304.286 48.146 C 304.370 48.203,304.571 48.583,304.731 48.990 C 304.892 49.398,305.168 49.934,305.345 50.183 C 305.522 50.431,305.667 50.675,305.667 50.725 C 305.667 50.774,305.929 51.100,306.249 51.449 C 306.570 51.798,306.836 52.158,306.840 52.250 C 306.851 52.460,308.321 53.812,309.417 54.619 C 313.537 57.655,319.541 58.596,325.650 57.162 C 326.487 56.965,327.278 56.698,327.407 56.569 C 327.537 56.439,327.725 56.333,327.826 56.333 C 328.104 56.333,330.333 55.180,330.333 55.036 C 330.333 54.966,330.602 54.765,330.930 54.588 C 331.258 54.411,331.703 54.057,331.919 53.800 C 332.135 53.543,332.387 53.333,332.479 53.333 C 332.571 53.333,332.888 52.996,333.185 52.583 C 333.481 52.171,333.782 51.833,333.854 51.833 C 333.925 51.833,334.258 51.365,334.594 50.792 C 334.929 50.219,335.272 49.707,335.356 49.654 C 335.550 49.532,336.667 46.425,336.667 46.007 C 336.667 45.835,336.736 45.669,336.820 45.639 C 337.435 45.416,337.457 37.891,336.845 37.083 C 336.775 36.992,336.618 36.542,336.495 36.083 C 336.217 35.049,335.543 33.301,335.373 33.176 C 335.304 33.125,334.973 32.633,334.637 32.083 C 333.571 30.334,330.790 27.766,329.379 27.227 C 328.987 27.077,328.667 26.885,328.667 26.801 C 328.667 26.716,328.592 26.693,328.500 26.750 C 328.408 26.807,328.333 26.783,328.333 26.696 C 328.333 26.515,325.254 25.500,324.704 25.500 C 324.500 25.500,324.333 25.428,324.333 25.340 C 324.333 25.253,324.072 25.201,323.754 25.226 C 323.435 25.251,323.154 25.217,323.129 25.149 C 323.054 24.948,319.354 24.852,317.917 25.014 M377.625 24.956 C 377.098 24.990,376.667 25.074,376.667 25.145 C 376.667 25.215,376.404 25.252,376.083 25.227 C 375.762 25.201,375.500 25.253,375.500 25.340 C 375.500 25.428,375.369 25.501,375.208 25.502 C 374.511 25.507,371.784 26.526,371.377 26.933 C 371.244 27.066,370.898 27.294,370.609 27.440 C 370.320 27.587,369.783 28.014,369.417 28.391 L 368.750 29.075 368.703 27.121 L 368.656 25.167 364.995 25.167 L 361.333 25.167 361.333 41.333 L 361.333 57.500 365.167 57.500 L 369.000 57.500 369.000 49.093 C 369.000 43.668,369.059 40.650,369.167 40.583 C 369.258 40.527,369.333 40.161,369.333 39.772 C 369.333 35.043,373.284 31.577,378.333 31.876 C 379.800 31.963,381.667 32.410,381.667 32.675 C 381.667 32.758,381.960 32.976,382.318 33.159 C 382.676 33.341,383.107 33.673,383.276 33.895 C 385.130 36.334,385.160 36.554,385.169 48.168 L 385.177 57.500 389.172 57.500 L 393.167 57.500 393.165 48.208 C 393.163 39.330,392.998 34.982,392.657 34.861 C 392.571 34.831,392.500 34.654,392.500 34.469 C 392.500 33.900,391.498 31.103,391.167 30.750 C 390.996 30.567,390.744 30.202,390.609 29.940 C 390.249 29.245,388.739 27.729,387.985 27.305 C 387.626 27.103,387.333 26.873,387.333 26.793 C 387.333 26.713,387.258 26.693,387.167 26.750 C 387.075 26.807,387.000 26.784,387.000 26.699 C 387.000 26.495,385.558 25.903,384.413 25.636 C 383.911 25.520,383.500 25.371,383.500 25.306 C 383.500 25.241,383.369 25.186,383.208 25.184 C 383.048 25.182,382.317 25.107,381.583 25.016 C 380.261 24.853,379.470 24.841,377.625 24.956 M246.333 41.333 L 246.333 57.500 250.167 57.500 L 254.000 57.500 254.000 41.333 L 254.000 25.167 250.167 25.167 L 246.333 25.167 246.333 41.333 M344.165 25.289 C 344.164 25.359,344.164 32.617,344.164 41.417 L 344.165 57.417 348.083 57.461 L 352.002 57.506 351.959 41.378 L 351.917 25.250 348.042 25.205 C 345.910 25.181,344.166 25.218,344.165 25.289 M170.580 41.417 C 170.580 50.217,170.600 53.792,170.625 49.362 C 170.650 44.932,170.650 37.732,170.625 33.362 C 170.600 28.992,170.580 32.617,170.580 41.417 M323.287 32.145 C 323.857 32.322,324.435 32.568,324.571 32.692 C 324.707 32.815,325.215 33.169,325.701 33.476 C 327.430 34.573,329.167 37.607,329.167 39.530 C 329.167 39.697,329.242 39.833,329.333 39.833 C 329.432 39.833,329.500 40.444,329.500 41.333 C 329.500 42.158,329.435 42.833,329.355 42.833 C 329.275 42.833,329.161 43.190,329.101 43.625 C 328.938 44.815,328.284 46.523,327.786 47.060 C 327.543 47.323,327.303 47.665,327.254 47.821 C 327.106 48.286,325.465 49.601,324.533 50.002 C 324.056 50.207,323.667 50.445,323.667 50.530 C 323.667 50.616,323.588 50.638,323.493 50.579 C 323.397 50.520,323.219 50.554,323.097 50.656 C 322.336 51.287,317.702 51.226,317.052 50.576 C 316.919 50.442,316.710 50.333,316.588 50.333 C 315.461 50.333,313.009 48.134,312.127 46.333 C 312.015 46.104,311.866 45.875,311.795 45.824 C 310.804 45.104,310.843 37.604,311.842 36.833 C 311.901 36.787,312.142 36.402,312.378 35.976 C 312.935 34.972,314.264 33.584,315.095 33.141 C 315.455 32.949,315.787 32.740,315.833 32.678 C 316.502 31.767,321.024 31.444,323.287 32.145 M5.333 37.750 L 5.333 42.167 7.958 42.134 C 10.485 42.103,10.518 42.098,8.833 42.009 L 7.083 41.917 7.130 41.340 C 7.156 41.023,7.235 40.723,7.306 40.673 C 7.377 40.624,7.566 40.021,7.727 39.333 C 8.506 35.996,8.754 35.075,8.899 34.973 C 8.985 34.912,9.075 34.518,9.099 34.098 L 9.142 33.333 7.238 33.333 L 5.333 33.333 5.333 37.750 " stroke="none" fill="#2c3494" fill-rule="evenodd"></path><path id="path4" d="M20.383 16.119 C 19.686 16.185,19.500 16.387,19.418 17.167 C 19.372 17.609,19.148 18.167,19.017 18.167 C 18.946 18.167,18.880 18.260,18.869 18.375 C 18.825 18.819,17.749 22.755,17.649 22.833 C 17.493 22.957,16.695 26.473,16.800 26.577 C 16.849 26.626,18.695 26.655,20.903 26.642 C 23.110 26.628,24.703 26.585,24.442 26.546 C 24.047 26.487,23.985 26.414,24.069 26.112 C 24.125 25.913,24.324 25.077,24.511 24.254 C 24.698 23.432,24.910 22.719,24.982 22.671 C 25.055 22.623,25.165 22.325,25.226 22.009 C 25.531 20.444,25.664 20.154,25.996 20.331 C 26.169 20.424,26.485 20.498,26.697 20.496 C 27.032 20.493,27.009 20.456,26.521 20.216 C 25.417 19.672,24.459 18.104,24.302 16.583 L 24.250 16.083 22.667 16.068 C 21.796 16.060,20.768 16.082,20.383 16.119 M171.000 25.500 C 171.000 25.592,171.193 25.667,171.429 25.667 C 171.846 25.667,171.855 25.689,171.766 26.542 C 171.716 27.023,171.505 32.254,171.296 38.167 L 170.917 48.917 170.831 40.750 C 170.747 32.747,170.744 32.833,170.706 45.042 L 170.667 57.500 174.422 57.500 C 177.276 57.500,178.195 57.450,178.251 57.292 C 178.291 57.177,178.349 52.958,178.379 47.917 C 178.441 37.537,178.506 37.019,180.045 34.786 C 180.221 34.530,180.380 34.214,180.400 34.082 C 180.419 33.951,180.487 33.791,180.551 33.727 C 180.614 33.663,180.667 32.836,180.667 31.889 C 180.667 30.852,180.733 30.167,180.833 30.167 C 181.090 30.167,181.050 27.379,180.792 27.288 C 180.526 27.195,179.933 27.412,179.548 27.744 C 179.384 27.885,178.931 28.272,178.542 28.603 L 177.833 29.205 177.833 27.269 L 177.833 25.333 174.417 25.333 C 172.250 25.333,171.000 25.394,171.000 25.500 M14.814 33.458 C 14.803 33.527,14.803 33.640,14.814 33.708 C 14.824 33.777,14.758 33.833,14.667 33.833 C 14.575 33.833,14.501 33.927,14.502 34.042 C 14.506 34.396,13.282 39.412,13.170 39.500 C 13.111 39.546,12.960 40.023,12.834 40.561 C 12.708 41.099,12.512 41.631,12.399 41.743 C 12.161 41.982,16.851 42.187,21.402 42.137 L 24.083 42.108 22.055 42.012 C 20.940 41.960,19.982 41.872,19.927 41.817 C 19.810 41.699,20.491 38.622,20.662 38.500 C 20.726 38.454,21.035 37.348,21.348 36.042 C 21.888 33.786,21.937 33.667,22.333 33.651 L 22.750 33.633 22.333 33.500 C 21.802 33.330,14.840 33.291,14.814 33.458 " stroke="none" fill="#493494" fill-rule="evenodd"></path><path id="path5" d="M19.503 16.292 C 19.504 16.484,19.547 16.517,19.630 16.387 C 19.698 16.280,20.053 16.161,20.419 16.124 C 21.077 16.057,21.076 16.056,20.292 16.028 C 19.637 16.005,19.500 16.051,19.503 16.292 M18.392 19.051 C 17.388 20.475,16.036 20.891,13.250 20.630 L 12.750 20.583 12.349 22.250 C 12.129 23.167,11.899 23.954,11.838 24.000 C 11.667 24.128,11.158 26.352,11.262 26.519 C 11.461 26.842,16.760 26.696,16.785 26.367 C 16.827 25.815,17.542 22.918,17.658 22.833 C 17.721 22.787,17.910 22.150,18.079 21.417 C 18.247 20.683,18.513 19.690,18.670 19.208 C 18.827 18.727,18.942 18.333,18.926 18.333 C 18.910 18.333,18.670 18.656,18.392 19.051 M186.464 25.091 C 186.438 25.116,186.079 25.176,185.667 25.225 C 184.295 25.387,181.847 26.191,181.186 26.696 C 180.967 26.863,180.690 27.000,180.571 27.000 C 180.451 27.000,180.304 27.080,180.243 27.178 C 180.183 27.276,180.234 27.342,180.358 27.325 C 180.962 27.242,181.000 27.326,181.000 28.750 C 181.000 29.583,180.931 30.167,180.833 30.167 C 180.733 30.167,180.667 30.852,180.667 31.889 C 180.667 32.836,180.614 33.663,180.551 33.727 C 180.487 33.791,180.419 33.951,180.400 34.082 C 180.380 34.214,180.199 34.553,179.997 34.837 C 179.796 35.121,179.659 35.382,179.695 35.417 C 179.731 35.453,179.979 35.161,180.246 34.769 C 180.663 34.159,182.315 32.762,182.642 32.744 C 182.702 32.741,182.914 32.647,183.114 32.536 C 183.686 32.218,185.652 31.810,186.612 31.810 C 187.361 31.810,187.501 31.758,187.600 31.449 C 187.698 31.139,187.988 25.329,187.911 25.206 C 187.872 25.143,186.520 25.036,186.464 25.091 M9.158 33.375 C 9.153 33.398,9.129 33.741,9.104 34.138 C 9.080 34.535,8.988 34.910,8.901 34.972 C 8.754 35.074,8.507 35.990,7.727 39.333 C 7.566 40.021,7.377 40.624,7.306 40.673 C 7.235 40.723,7.156 41.023,7.130 41.340 L 7.083 41.917 9.000 42.020 C 10.054 42.076,12.192 42.116,13.750 42.108 C 16.324 42.095,16.380 42.089,14.368 42.042 C 12.505 41.998,12.188 41.954,12.378 41.764 C 12.503 41.640,12.708 41.099,12.834 40.561 C 12.960 40.023,13.111 39.546,13.170 39.500 C 13.282 39.412,14.506 34.396,14.502 34.042 C 14.501 33.927,14.563 33.833,14.639 33.833 C 14.715 33.833,14.778 33.721,14.778 33.583 C 14.778 33.368,9.204 33.161,9.158 33.375 " stroke="none" fill="#3c3494" fill-rule="evenodd"></path></g></svg>