<svg id="svg" version="1.1" xmlns="http://www.w3.org/2000/svg" xmlns:xlink="http://www.w3.org/1999/xlink" width="400" height="63.098591549295776" viewBox="0, 0, 400,63.098591549295776"><g id="svgg"><path id="path0" d="M248.833 9.487 C 245.382 10.293,244.104 14.465,246.509 17.073 C 246.894 17.491,247.306 17.833,247.424 17.833 C 247.542 17.833,247.666 17.915,247.699 18.015 C 247.954 18.778,251.911 18.797,252.849 18.040 C 253.875 17.211,254.500 16.594,254.500 16.409 C 254.500 16.289,254.631 16.059,254.792 15.899 C 255.278 15.413,255.305 12.897,254.833 11.952 C 253.814 9.911,251.350 8.899,248.833 9.487 M346.456 9.504 C 345.722 9.689,344.502 10.286,344.496 10.462 C 344.494 10.529,344.239 10.864,343.930 11.208 C 342.879 12.374,342.696 16.333,343.693 16.333 C 343.770 16.333,343.833 16.438,343.833 16.566 C 343.833 16.779,344.365 17.297,345.347 18.040 C 346.395 18.833,350.413 18.735,350.730 17.909 C 350.781 17.776,350.931 17.667,351.063 17.667 C 351.375 17.667,352.045 16.866,352.336 16.147 C 352.462 15.837,352.644 15.530,352.741 15.464 C 353.003 15.287,352.973 12.297,352.708 12.208 C 352.594 12.170,352.500 12.043,352.500 11.926 C 352.500 10.372,348.834 8.903,346.456 9.504 M279.838 13.199 C 279.153 13.284,278.515 13.416,278.421 13.491 C 278.327 13.567,277.987 13.681,277.667 13.745 C 274.820 14.314,270.438 16.429,268.692 18.077 C 266.961 19.712,266.093 20.618,265.720 21.182 C 265.483 21.540,265.238 21.833,265.175 21.833 C 265.070 21.833,264.937 22.054,264.065 23.667 C 263.892 23.987,263.692 24.293,263.622 24.345 C 263.457 24.468,262.578 26.752,262.425 27.458 C 262.360 27.756,262.250 28.000,262.180 28.000 C 261.221 28.000,261.193 40.506,262.149 41.165 C 262.218 41.212,262.449 41.813,262.663 42.500 C 263.043 43.718,263.443 44.665,263.648 44.833 C 263.704 44.879,264.007 45.404,264.321 46.000 C 264.635 46.596,265.066 47.249,265.279 47.450 C 265.492 47.652,265.667 47.889,265.667 47.975 C 265.667 48.683,270.064 52.357,272.091 53.342 C 272.728 53.652,273.293 53.966,273.345 54.040 C 273.469 54.213,276.099 55.108,276.938 55.263 C 277.293 55.328,277.622 55.440,277.669 55.511 C 278.176 56.284,289.292 56.307,289.821 55.536 C 289.874 55.459,290.361 55.299,290.904 55.180 C 291.954 54.949,294.024 54.216,294.165 54.025 C 294.212 53.962,294.775 53.649,295.417 53.331 C 296.058 53.012,296.839 52.508,297.151 52.209 C 297.463 51.911,297.789 51.667,297.876 51.667 C 298.163 51.667,300.333 49.351,300.333 49.045 C 300.333 48.681,295.755 44.273,295.296 44.195 C 295.080 44.158,294.715 44.421,294.194 44.987 C 293.766 45.452,293.336 45.833,293.240 45.833 C 293.143 45.833,292.843 46.045,292.573 46.304 C 291.186 47.636,287.935 48.766,285.000 48.936 C 282.808 49.063,278.655 48.478,278.333 47.997 C 278.287 47.928,277.745 47.644,277.127 47.364 C 275.111 46.452,272.983 44.587,271.863 42.750 C 271.527 42.200,271.194 41.707,271.122 41.654 C 270.925 41.510,270.228 39.507,269.989 38.397 C 269.873 37.858,269.699 37.314,269.603 37.189 C 269.365 36.880,269.367 32.187,269.605 32.032 C 269.703 31.969,269.832 31.602,269.892 31.217 C 270.075 30.043,270.862 27.805,271.190 27.524 C 271.361 27.379,271.500 27.175,271.500 27.071 C 271.500 26.968,271.725 26.573,272.000 26.193 C 272.275 25.813,272.500 25.471,272.500 25.433 C 272.500 25.310,274.226 23.697,274.917 23.175 C 275.283 22.898,275.675 22.594,275.787 22.500 C 276.080 22.254,278.502 21.167,278.757 21.167 C 278.875 21.167,278.997 21.094,279.028 21.006 C 279.349 20.075,289.167 20.080,289.167 21.011 C 289.167 21.082,289.448 21.231,289.792 21.340 C 290.539 21.579,292.016 22.340,292.250 22.607 C 292.342 22.712,292.727 22.989,293.107 23.223 C 293.487 23.457,293.949 23.861,294.135 24.122 C 295.026 25.374,295.195 25.314,297.833 22.809 C 300.305 20.462,300.333 20.433,300.333 20.136 C 300.333 19.872,298.152 17.500,297.909 17.500 C 297.848 17.500,297.424 17.203,296.968 16.839 C 295.716 15.843,292.626 14.395,290.900 13.997 C 290.084 13.808,289.267 13.583,289.083 13.497 C 288.110 13.038,282.558 12.859,279.838 13.199 M88.333 34.667 L 88.333 55.667 92.500 55.667 L 96.667 55.667 96.674 50.208 L 96.681 44.750 99.814 41.558 L 102.947 38.366 103.765 39.362 C 104.215 39.910,104.771 40.557,105.000 40.801 C 105.229 41.045,105.586 41.471,105.793 41.747 C 106.247 42.353,107.217 43.473,107.958 44.246 C 108.256 44.557,108.501 44.872,108.501 44.947 C 108.502 45.022,108.751 45.346,109.053 45.667 C 109.356 45.987,110.235 47.000,111.007 47.917 C 111.778 48.833,112.636 49.834,112.913 50.140 C 113.190 50.446,113.492 50.821,113.583 50.973 C 113.746 51.243,114.274 51.858,115.214 52.870 C 115.469 53.145,115.879 53.643,116.124 53.977 C 116.370 54.310,116.827 54.827,117.140 55.125 L 117.709 55.667 122.271 55.667 C 127.359 55.667,127.369 55.664,126.375 54.570 C 126.123 54.292,125.654 53.713,125.333 53.284 C 125.013 52.854,124.499 52.223,124.193 51.881 C 123.887 51.539,123.534 51.059,123.408 50.816 C 123.282 50.573,123.070 50.332,122.936 50.281 C 122.803 50.229,122.445 49.808,122.141 49.344 C 121.837 48.880,121.532 48.500,121.463 48.500 C 121.394 48.500,121.155 48.219,120.932 47.875 C 120.709 47.531,120.352 47.050,120.138 46.806 C 119.925 46.562,119.263 45.749,118.667 44.999 C 118.071 44.250,117.265 43.287,116.876 42.860 C 116.487 42.433,116.168 41.995,116.168 41.887 C 116.167 41.779,115.995 41.554,115.784 41.387 C 115.574 41.220,115.155 40.722,114.852 40.280 C 114.549 39.839,114.196 39.437,114.068 39.388 C 113.939 39.338,113.833 39.212,113.833 39.107 C 113.833 39.002,113.543 38.598,113.187 38.210 C 112.832 37.821,112.288 37.165,111.979 36.753 C 111.670 36.340,111.166 35.723,110.860 35.381 C 110.554 35.039,110.196 34.550,110.064 34.296 C 109.932 34.042,109.757 33.833,109.674 33.833 C 109.591 33.833,109.302 33.505,109.031 33.104 L 108.539 32.374 109.448 31.396 C 110.886 29.847,113.298 27.278,114.750 25.749 C 115.483 24.977,116.758 23.622,117.583 22.739 C 120.640 19.464,121.936 18.091,122.669 17.347 C 123.780 16.219,125.833 13.903,125.833 13.776 C 125.833 13.716,123.783 13.667,121.278 13.667 L 116.722 13.667 112.253 18.292 C 109.795 20.835,106.698 24.042,105.371 25.417 C 104.043 26.792,101.898 28.992,100.604 30.306 C 99.309 31.621,98.212 32.788,98.167 32.899 C 98.121 33.011,97.765 33.388,97.375 33.737 L 96.667 34.372 96.667 24.019 L 96.667 13.667 92.500 13.667 L 88.333 13.667 88.333 34.667 M5.667 19.583 L 5.667 25.000 21.917 25.000 L 38.167 25.000 38.167 19.667 L 38.167 14.333 35.833 14.333 L 33.500 14.333 33.500 14.748 C 33.500 16.888,31.324 19.000,29.118 19.000 C 26.807 19.000,24.500 16.780,24.500 14.557 L 24.500 14.167 22.083 14.167 L 19.667 14.167 19.667 14.606 C 19.667 15.187,19.317 16.333,19.140 16.333 C 19.063 16.333,19.000 16.430,19.000 16.549 C 19.000 16.911,17.772 18.106,16.990 18.505 C 15.625 19.201,13.406 18.928,12.386 17.939 C 12.184 17.744,11.865 17.440,11.678 17.264 C 11.264 16.877,10.667 15.339,10.667 14.660 L 10.667 14.167 8.167 14.167 L 5.667 14.167 5.667 19.583 M59.500 17.962 C 59.500 18.033,58.939 18.181,58.253 18.290 C 56.973 18.494,54.487 19.270,54.327 19.516 C 54.278 19.592,53.941 19.776,53.577 19.926 C 52.272 20.464,48.169 23.778,48.166 24.297 C 48.165 24.363,47.948 24.648,47.682 24.932 C 47.417 25.215,46.955 25.890,46.655 26.432 C 46.356 26.973,46.011 27.535,45.889 27.679 C 45.636 27.979,44.667 30.899,44.667 31.361 C 44.667 31.656,43.963 31.667,25.167 31.667 L 5.667 31.667 5.667 35.917 L 5.667 40.167 25.125 40.167 L 44.583 40.168 44.864 41.292 C 45.220 42.718,46.308 44.982,47.250 46.260 C 48.584 48.068,50.417 49.908,51.478 50.501 C 51.725 50.639,52.088 50.902,52.284 51.084 C 52.481 51.267,53.153 51.637,53.779 51.906 C 54.405 52.176,54.954 52.442,55.000 52.499 C 55.832 53.529,63.097 54.144,66.167 53.444 C 67.650 53.106,69.050 52.665,69.167 52.498 C 69.212 52.433,69.774 52.149,70.415 51.868 C 71.056 51.587,71.731 51.213,71.915 51.036 C 72.099 50.860,72.487 50.594,72.777 50.445 C 73.067 50.295,73.453 49.984,73.634 49.753 C 73.816 49.522,74.042 49.333,74.136 49.333 C 74.358 49.333,76.284 47.218,76.594 46.634 C 76.725 46.387,77.002 45.998,77.208 45.769 C 77.414 45.540,77.768 44.918,77.994 44.385 C 78.220 43.852,78.499 43.320,78.614 43.201 C 78.982 42.823,79.833 39.535,79.833 38.492 C 79.833 38.221,79.908 38.000,80.000 38.000 C 80.103 38.000,80.167 37.167,80.167 35.833 C 80.167 34.500,80.103 33.667,80.000 33.667 C 79.908 33.667,79.833 33.423,79.832 33.125 C 79.827 31.511,78.175 27.076,77.083 25.749 C 76.900 25.526,76.525 25.034,76.250 24.654 C 75.639 23.812,73.054 21.334,72.781 21.330 C 72.672 21.329,72.422 21.157,72.225 20.949 C 71.307 19.981,66.660 18.167,65.095 18.167 C 64.860 18.167,64.667 18.092,64.667 18.000 C 64.667 17.896,63.694 17.833,62.083 17.833 C 60.663 17.833,59.500 17.891,59.500 17.962 M186.000 23.273 C 184.917 23.430,183.000 23.901,183.000 24.009 C 183.000 24.076,182.829 24.174,182.619 24.226 C 181.965 24.390,180.000 25.330,180.000 25.478 C 180.000 25.556,179.588 25.893,179.083 26.228 L 178.167 26.837 178.167 25.168 L 178.167 23.500 174.417 23.500 L 170.667 23.500 170.667 39.583 L 170.667 55.667 174.583 55.667 L 178.500 55.667 178.500 46.527 C 178.500 37.087,178.653 34.927,179.337 34.694 C 179.427 34.664,179.500 34.558,179.500 34.459 C 179.500 34.158,180.552 32.605,180.996 32.250 C 181.225 32.067,181.542 31.789,181.700 31.632 C 182.361 30.975,184.631 30.167,185.816 30.167 C 186.100 30.167,186.333 30.092,186.333 30.000 C 186.333 29.908,186.671 29.833,187.083 29.833 C 187.496 29.833,187.833 29.898,187.833 29.977 C 187.833 30.056,188.239 30.168,188.734 30.227 C 190.892 30.480,192.665 31.699,193.445 33.465 C 193.676 33.989,193.990 34.679,194.141 35.000 C 194.386 35.519,194.422 36.699,194.467 45.625 L 194.517 55.667 198.425 55.667 L 202.333 55.667 202.330 45.708 C 202.327 35.396,202.198 32.922,201.599 31.626 C 201.461 31.328,201.187 30.647,200.991 30.114 C 200.671 29.243,198.809 26.507,198.529 26.496 C 198.467 26.493,198.093 26.195,197.698 25.832 C 197.037 25.227,195.119 24.167,194.685 24.167 C 194.583 24.167,194.500 24.100,194.500 24.019 C 194.500 23.480,188.312 22.937,186.000 23.273 M223.500 23.268 C 221.377 23.654,220.470 23.878,219.877 24.164 C 219.495 24.349,219.113 24.500,219.029 24.500 C 218.800 24.500,216.930 25.346,216.833 25.493 C 216.787 25.563,216.505 25.745,216.207 25.899 C 215.387 26.319,213.404 28.084,212.660 29.056 C 212.297 29.529,211.894 30.030,211.764 30.168 C 211.526 30.420,211.067 31.297,210.280 33.000 C 209.068 35.626,208.818 41.065,209.749 44.583 C 210.010 45.573,210.187 46.053,210.332 46.167 C 210.390 46.212,210.658 46.765,210.927 47.395 C 211.196 48.024,211.584 48.699,211.789 48.895 C 211.993 49.090,212.162 49.333,212.164 49.433 C 212.170 49.841,215.384 52.864,216.221 53.250 C 216.420 53.342,217.071 53.688,217.667 54.020 C 218.262 54.351,219.387 54.799,220.167 55.015 C 220.946 55.231,221.621 55.456,221.667 55.516 C 222.116 56.105,230.572 56.119,230.993 55.532 C 231.043 55.463,231.496 55.305,232.000 55.182 C 233.036 54.929,234.852 54.231,234.991 54.032 C 235.042 53.960,235.441 53.694,235.878 53.441 C 236.898 52.852,238.849 50.903,239.444 49.878 C 239.698 49.441,240.002 48.984,240.119 48.863 C 240.410 48.564,240.390 48.167,240.083 48.167 C 239.946 48.167,239.833 48.101,239.833 48.021 C 239.833 47.940,239.290 47.595,238.625 47.252 C 237.960 46.910,237.379 46.572,237.333 46.501 C 237.287 46.431,236.725 46.099,236.083 45.764 C 235.442 45.429,234.789 45.066,234.633 44.958 C 234.333 44.750,233.834 45.176,233.185 46.197 C 232.892 46.657,231.238 47.952,230.393 48.382 C 228.942 49.121,225.866 49.382,223.967 48.928 C 222.736 48.634,221.500 48.159,221.500 47.982 C 221.500 47.905,221.256 47.720,220.958 47.571 C 220.170 47.176,218.780 45.675,218.330 44.732 C 218.115 44.284,217.886 43.879,217.820 43.833 C 216.866 43.171,216.891 35.167,217.847 35.167 C 217.919 35.167,218.030 35.000,218.095 34.797 C 218.658 33.022,222.235 30.183,223.925 30.169 C 224.113 30.168,224.354 30.079,224.461 29.972 C 224.705 29.728,228.147 29.704,228.306 29.945 C 228.367 30.037,228.782 30.203,229.229 30.314 C 230.842 30.714,232.188 31.687,233.877 33.677 L 234.337 34.219 235.293 33.759 C 235.820 33.506,236.325 33.210,236.417 33.100 C 236.508 32.990,237.142 32.613,237.826 32.262 C 238.509 31.910,239.177 31.514,239.310 31.381 C 239.443 31.248,239.728 31.072,239.943 30.990 C 240.381 30.823,240.464 30.373,240.083 30.227 C 239.946 30.174,239.833 30.052,239.833 29.955 C 239.833 29.633,238.763 28.105,238.001 27.339 C 237.289 26.623,237.040 26.429,235.391 25.304 C 235.010 25.044,234.223 24.664,233.641 24.458 C 233.059 24.253,232.541 24.028,232.489 23.957 C 232.138 23.480,225.243 22.952,223.500 23.268 M317.083 23.275 C 315.805 23.479,314.264 23.840,314.178 23.956 C 314.126 24.027,313.633 24.228,313.083 24.404 C 312.012 24.746,310.891 25.283,310.524 25.630 C 310.400 25.748,310.001 25.996,309.638 26.182 C 308.783 26.618,306.284 29.116,305.848 29.971 C 305.663 30.334,305.410 30.733,305.286 30.858 C 304.975 31.170,304.275 32.747,304.002 33.750 C 303.877 34.208,303.722 34.621,303.659 34.667 C 302.907 35.206,302.882 43.952,303.630 44.490 C 303.701 44.542,303.897 45.033,304.066 45.583 C 304.682 47.590,306.032 49.721,307.698 51.320 C 308.929 52.500,309.366 52.836,310.349 53.354 C 310.935 53.664,311.455 53.968,311.503 54.031 C 311.652 54.226,313.079 54.792,314.190 55.096 C 314.773 55.255,315.325 55.442,315.417 55.512 C 316.226 56.124,324.833 56.107,324.833 55.493 C 324.833 55.426,325.115 55.318,325.458 55.255 C 327.132 54.945,330.008 53.594,331.167 52.574 C 332.494 51.405,333.990 49.845,334.228 49.380 C 334.380 49.085,334.637 48.710,334.800 48.547 C 334.963 48.383,335.274 47.837,335.492 47.333 C 335.711 46.829,336.059 46.039,336.266 45.578 C 337.375 43.106,337.429 33.667,336.333 33.667 C 336.262 33.667,336.155 33.476,336.097 33.244 C 335.911 32.503,334.977 30.588,334.734 30.450 C 334.605 30.377,334.500 30.221,334.500 30.104 C 334.500 29.917,334.140 29.478,332.739 27.957 C 332.032 27.190,330.971 26.325,330.340 26.004 C 329.982 25.821,329.640 25.591,329.579 25.494 C 329.468 25.313,327.748 24.500,327.477 24.500 C 327.396 24.500,327.012 24.352,326.623 24.171 C 325.017 23.425,319.437 22.900,317.083 23.275 M376.583 23.270 C 375.552 23.425,373.753 23.859,373.670 23.974 C 373.622 24.040,373.034 24.312,372.362 24.578 C 371.690 24.845,370.978 25.235,370.779 25.446 C 370.580 25.656,370.332 25.829,370.228 25.830 C 370.124 25.832,369.768 26.133,369.436 26.500 C 368.638 27.384,368.667 27.427,368.667 25.333 L 368.667 23.500 364.917 23.500 L 361.167 23.500 361.167 39.583 L 361.167 55.667 365.167 55.667 L 369.167 55.667 369.167 46.765 C 369.167 37.016,369.371 34.737,370.310 34.000 C 370.369 33.954,370.679 33.523,371.000 33.042 C 371.321 32.561,371.639 32.167,371.708 32.167 C 371.776 32.167,372.102 31.912,372.431 31.602 C 373.099 30.972,374.728 30.359,376.125 30.212 C 376.606 30.161,377.000 30.056,377.000 29.977 C 377.000 29.898,377.337 29.833,377.750 29.833 C 378.162 29.833,378.500 29.908,378.500 30.000 C 378.500 30.092,378.744 30.167,379.042 30.168 C 380.267 30.173,382.282 31.048,382.982 31.881 C 383.221 32.165,383.533 32.514,383.674 32.657 C 383.954 32.939,384.222 33.500,384.635 34.667 C 384.861 35.309,384.913 36.870,384.991 45.500 L 385.083 55.583 389.051 55.628 L 393.020 55.673 392.968 44.642 C 392.928 36.002,392.872 33.596,392.708 33.542 C 392.594 33.503,392.500 33.332,392.500 33.161 C 392.500 32.367,391.442 29.167,391.179 29.167 C 391.116 29.167,390.938 28.882,390.785 28.533 C 390.077 26.929,386.574 24.167,385.248 24.167 C 385.127 24.167,385.003 24.095,384.972 24.008 C 384.788 23.481,378.731 22.948,376.583 23.270 M129.837 33.792 C 129.840 43.472,129.932 45.906,130.323 46.627 C 130.410 46.786,130.684 47.567,130.932 48.361 C 131.196 49.208,131.580 50.036,131.858 50.361 C 132.119 50.667,132.333 50.998,132.333 51.098 C 132.333 51.354,134.488 53.500,134.743 53.500 C 134.860 53.500,135.152 53.697,135.392 53.938 C 135.648 54.193,136.472 54.600,137.373 54.916 C 138.222 55.214,139.029 55.502,139.167 55.557 C 140.614 56.137,147.403 56.114,147.830 55.527 C 147.877 55.461,148.367 55.269,148.917 55.101 C 149.906 54.797,151.172 54.226,151.333 54.011 C 151.379 53.950,151.790 53.641,152.246 53.325 C 152.702 53.009,153.206 52.600,153.366 52.417 C 153.644 52.097,153.656 52.156,153.661 53.875 L 153.667 55.667 157.417 55.667 L 161.167 55.667 161.167 39.583 L 161.167 23.500 157.250 23.500 L 153.333 23.500 153.333 32.424 C 153.333 41.646,153.220 43.435,152.590 44.167 C 152.471 44.304,152.226 44.758,152.044 45.176 C 151.701 45.965,150.202 47.580,149.650 47.755 C 149.476 47.811,149.333 47.919,149.333 47.996 C 149.333 48.639,144.585 49.249,142.816 48.833 C 140.385 48.262,138.761 46.636,138.153 44.167 C 138.029 43.663,137.850 43.197,137.755 43.131 C 137.641 43.052,137.565 39.719,137.530 33.256 L 137.476 23.500 133.655 23.500 L 129.833 23.500 129.837 33.792 M246.333 39.583 L 246.333 55.667 250.250 55.667 L 254.167 55.667 254.167 39.583 L 254.167 23.500 250.250 23.500 L 246.333 23.500 246.333 39.583 M344.167 39.583 L 344.167 55.667 348.000 55.667 L 351.833 55.667 351.833 39.583 L 351.833 23.500 348.000 23.500 L 344.167 23.500 344.167 39.583 M64.705 26.593 C 65.172 26.717,65.598 26.877,65.652 26.950 C 65.706 27.023,66.194 27.308,66.736 27.583 C 67.278 27.858,67.840 28.150,67.986 28.231 C 69.916 29.313,71.756 33.417,71.635 36.372 C 71.562 38.139,71.599 38.015,70.367 40.667 C 69.995 41.468,67.565 43.862,66.750 44.231 C 66.383 44.397,65.783 44.672,65.417 44.842 C 63.742 45.618,59.582 45.718,59.000 44.997 C 58.954 44.940,58.583 44.762,58.176 44.602 C 57.769 44.442,57.232 44.166,56.984 43.989 C 56.735 43.812,56.496 43.667,56.452 43.667 C 56.196 43.667,54.098 41.295,53.798 40.667 C 53.601 40.254,53.376 39.873,53.299 39.821 C 52.309 39.147,52.364 31.833,53.359 31.833 C 53.436 31.833,53.500 31.750,53.500 31.649 C 53.500 31.548,53.725 31.132,54.000 30.724 C 54.275 30.317,54.500 29.948,54.500 29.906 C 54.500 29.527,57.117 27.530,57.967 27.260 C 58.169 27.196,58.333 27.082,58.333 27.007 C 58.333 26.874,60.060 26.413,61.083 26.273 C 61.831 26.170,63.742 26.339,64.705 26.593 M322.000 29.996 C 322.046 30.063,322.362 30.170,322.702 30.232 C 323.460 30.372,325.137 31.099,325.565 31.474 C 326.911 32.654,327.771 33.694,328.205 34.667 C 328.471 35.262,328.808 36.012,328.955 36.332 C 329.488 37.498,329.390 42.784,328.831 42.972 C 328.741 43.003,328.667 43.131,328.667 43.256 C 328.667 43.720,327.620 45.659,327.233 45.913 C 327.013 46.057,326.833 46.284,326.833 46.419 C 326.833 46.553,326.402 46.945,325.875 47.290 C 325.348 47.635,324.842 48.001,324.750 48.104 C 323.536 49.466,316.482 49.388,315.333 48.000 C 315.287 47.945,314.897 47.649,314.464 47.343 C 314.032 47.036,313.478 46.496,313.233 46.143 C 312.988 45.789,312.727 45.500,312.652 45.500 C 312.482 45.500,311.886 44.192,311.550 43.083 C 311.411 42.625,311.211 42.196,311.107 42.131 C 310.826 41.955,310.843 37.136,311.125 37.042 C 311.240 37.003,311.336 36.847,311.340 36.694 C 311.398 34.327,314.518 30.995,317.328 30.300 C 317.744 30.197,318.122 30.055,318.169 29.985 C 318.370 29.685,321.795 29.695,322.000 29.996 M60.833 35.769 L 60.833 40.205 61.625 40.089 C 63.209 39.858,64.701 38.675,64.949 37.455 C 65.001 37.201,65.108 36.953,65.188 36.903 C 65.392 36.777,65.372 34.667,65.167 34.667 C 65.075 34.667,65.000 34.553,65.000 34.414 C 65.000 33.391,63.275 31.667,62.253 31.667 C 62.114 31.667,62.000 31.592,62.000 31.500 C 62.000 31.408,61.737 31.333,61.417 31.333 L 60.833 31.333 60.833 35.769 " stroke="none" fill="#040404" fill-rule="evenodd"></path><path id="path1" d="" stroke="none" fill="#080404" fill-rule="evenodd"></path><path id="path2" d="" stroke="none" fill="#080404" fill-rule="evenodd"></path><path id="path3" d="" stroke="none" fill="#080404" fill-rule="evenodd"></path><path id="path4" d="" stroke="none" fill="#080404" fill-rule="evenodd"></path></g></svg>